# xmcd
#
# Track frame offsets:
#	150
#	20156
#	36062
#	53777
#	68056
#	86131
#	100559
#	116029
#	129727
#	140704
#	155267
#	175523
#	194894
#	207623
#
# Disc length: 2979 seconds
#
# Revision: 1
# Processed by: cddbd v1.5.2PL0 Copyright (c) Steve Scherf et al.
# Submitted via: audiograbber 1.82.02
#
DISCID=ce0ba10e
DTITLE=Peter Coad and Sisters - The Road We Travel
DYEAR=2005
DGENRE=Country
TTITLE0=Mud In His Eyes
TTITLE1=The Old Shed
TTITLE2=If You Don't Know
TTITLE3=Harry And The Ghost
TTITLE4=Winter Winds
TTITLE5=The Man From Back Of Beyond
TTITLE6=I'm Gonna Cry
TTITLE7=Wild, Weird And Wonderful
TTITLE8=The Croc Story
TTITLE9=Ridin' The Ghan
TTITLE10=Wilcannia On The Darling
TTITLE11=Time On My Side
TTITLE12=Outback Jack
TTITLE13=Pichi Richi Train
EXTD=
EXTT0=
EXTT1=
EXTT2=
EXTT3=
EXTT4=
EXTT5=
EXTT6=
EXTT7=
EXTT8=
EXTT9=
EXTT10=
EXTT11=
EXTT12=
EXTT13=
PLAYORDER=
